<svg id="visual" viewBox="0 0 2000 1500" width="2000" height="1500" xmlns="http://www.w3.org/2000/svg" xmlns:xlink="http://www.w3.org/1999/xlink" version="1.1"><path d="M0 136L37 126C74 116 148 96 222 86C296 76 370 76 444.2 83.5C518.3 91 592.7 106 666.8 111C741 116 815 111 889 113.5C963 116 1037 126 1111 123.5C1185 121 1259 106 1333.2 106C1407.3 106 1481.7 121 1555.8 126C1630 131 1704 126 1778 123.5C1852 121 1926 121 1963 121L2000 121L2000 0L1963 0C1926 0 1852 0 1778 0C1704 0 1630 0 1555.8 0C1481.7 0 1407.3 0 1333.2 0C1259 0 1185 0 1111 0C1037 0 963 0 889 0C815 0 741 0 666.8 0C592.7 0 518.3 0 444.2 0C370 0 296 0 222 0C148 0 74 0 37 0L0 0Z" fill="#8da9c4"></path><path d="M0 256L37 243.5C74 231 148 206 222 203.5C296 201 370 221 444.2 233.5C518.3 246 592.7 251 666.8 248.5C741 246 815 236 889 238.5C963 241 1037 256 1111 258.5C1185 261 1259 251 1333.2 248.5C1407.3 246 1481.7 251 1555.8 253.5C1630 256 1704 256 1778 251C1852 246 1926 236 1963 231L2000 226L2000 119L1963 119C1926 119 1852 119 1778 121.5C1704 124 1630 129 1555.8 124C1481.7 119 1407.3 104 1333.2 104C1259 104 1185 119 1111 121.5C1037 124 963 114 889 111.5C815 109 741 114 666.8 109C592.7 104 518.3 89 444.2 81.5C370 74 296 74 222 84C148 94 74 114 37 124L0 134Z" fill="#7794b2"></path><path d="M0 406L37 406C74 406 148 406 222 398.5C296 391 370 376 444.2 381C518.3 386 592.7 411 666.8 421C741 431 815 426 889 433.5C963 441 1037 461 1111 466C1185 471 1259 461 1333.2 458.5C1407.3 456 1481.7 461 1555.8 448.5C1630 436 1704 406 1778 398.5C1852 391 1926 406 1963 413.5L2000 421L2000 224L1963 229C1926 234 1852 244 1778 249C1704 254 1630 254 1555.8 251.5C1481.7 249 1407.3 244 1333.2 246.5C1259 249 1185 259 1111 256.5C1037 254 963 239 889 236.5C815 234 741 244 666.8 246.5C592.7 249 518.3 244 444.2 231.5C370 219 296 199 222 201.5C148 204 74 229 37 241.5L0 254Z" fill="#627fa0"></path><path d="M0 781L37 758.5C74 736 148 691 222 686C296 681 370 716 444.2 751C518.3 786 592.7 821 666.8 831C741 841 815 826 889 821C963 816 1037 821 1111 798.5C1185 776 1259 726 1333.2 706C1407.3 686 1481.7 696 1555.8 726C1630 756 1704 806 1778 823.5C1852 841 1926 826 1963 818.5L2000 811L2000 419L1963 411.5C1926 404 1852 389 1778 396.5C1704 404 1630 434 1555.8 446.5C1481.7 459 1407.3 454 1333.2 456.5C1259 459 1185 469 1111 464C1037 459 963 439 889 431.5C815 424 741 429 666.8 419C592.7 409 518.3 384 444.2 379C370 374 296 389 222 396.5C148 404 74 404 37 404L0 404Z" fill="#4e6a8f"></path><path d="M0 946L37 926C74 906 148 866 222 868.5C296 871 370 916 444.2 968.5C518.3 1021 592.7 1081 666.8 1088.5C741 1096 815 1051 889 1028.5C963 1006 1037 1006 1111 991C1185 976 1259 946 1333.2 933.5C1407.3 921 1481.7 926 1555.8 946C1630 966 1704 1001 1778 1008.5C1852 1016 1926 996 1963 986L2000 976L2000 809L1963 816.5C1926 824 1852 839 1778 821.5C1704 804 1630 754 1555.8 724C1481.7 694 1407.3 684 1333.2 704C1259 724 1185 774 1111 796.5C1037 819 963 814 889 819C815 824 741 839 666.8 829C592.7 819 518.3 784 444.2 749C370 714 296 679 222 684C148 689 74 734 37 756.5L0 779Z" fill="#3b567e"></path><path d="M0 1366L37 1356C74 1346 148 1326 222 1318.5C296 1311 370 1316 444.2 1331C518.3 1346 592.7 1371 666.8 1381C741 1391 815 1386 889 1378.5C963 1371 1037 1361 1111 1358.5C1185 1356 1259 1361 1333.2 1361C1407.3 1361 1481.7 1356 1555.8 1356C1630 1356 1704 1361 1778 1361C1852 1361 1926 1356 1963 1353.5L2000 1351L2000 974L1963 984C1926 994 1852 1014 1778 1006.5C1704 999 1630 964 1555.8 944C1481.7 924 1407.3 919 1333.2 931.5C1259 944 1185 974 1111 989C1037 1004 963 1004 889 1026.5C815 1049 741 1094 666.8 1086.5C592.7 1079 518.3 1019 444.2 966.5C370 914 296 869 222 866.5C148 864 74 904 37 924L0 944Z" fill="#27436d"></path><path d="M0 1501L37 1501C74 1501 148 1501 222 1501C296 1501 370 1501 444.2 1501C518.3 1501 592.7 1501 666.8 1501C741 1501 815 1501 889 1501C963 1501 1037 1501 1111 1501C1185 1501 1259 1501 1333.2 1501C1407.3 1501 1481.7 1501 1555.8 1501C1630 1501 1704 1501 1778 1501C1852 1501 1926 1501 1963 1501L2000 1501L2000 1349L1963 1351.5C1926 1354 1852 1359 1778 1359C1704 1359 1630 1354 1555.8 1354C1481.7 1354 1407.3 1359 1333.2 1359C1259 1359 1185 1354 1111 1356.5C1037 1359 963 1369 889 1376.5C815 1384 741 1389 666.8 1379C592.7 1369 518.3 1344 444.2 1329C370 1314 296 1309 222 1316.5C148 1324 74 1344 37 1354L0 1364Z" fill="#13315c"></path></svg>