<svg id="visual" viewBox="0 0 2000 900" width="2000" height="900" xmlns="http://www.w3.org/2000/svg" xmlns:xlink="http://www.w3.org/1999/xlink" version="1.1"><path d="M0 588L33.3 595.7C66.7 603.3 133.3 618.7 200 617.8C266.7 617 333.3 600 400 599C466.7 598 533.3 613 600 620.7C666.7 628.3 733.3 628.7 800 618.5C866.7 608.3 933.3 587.7 1000 584.7C1066.7 581.7 1133.3 596.3 1200 603.5C1266.7 610.7 1333.3 610.3 1400 609.7C1466.7 609 1533.3 608 1600 611.8C1666.7 615.7 1733.3 624.3 1800 622.7C1866.7 621 1933.3 609 1966.7 603L2000 597L2000 901L1966.7 901C1933.3 901 1866.7 901 1800 901C1733.3 901 1666.7 901 1600 901C1533.3 901 1466.7 901 1400 901C1333.3 901 1266.7 901 1200 901C1133.3 901 1066.7 901 1000 901C933.3 901 866.7 901 800 901C733.3 901 666.7 901 600 901C533.3 901 466.7 901 400 901C333.3 901 266.7 901 200 901C133.3 901 66.7 901 33.3 901L0 901Z" fill="#eef4ed"></path><path d="M0 645L33.3 655.5C66.7 666 133.3 687 200 691.7C266.7 696.3 333.3 684.7 400 681.2C466.7 677.7 533.3 682.3 600 679.2C666.7 676 733.3 665 800 660.2C866.7 655.3 933.3 656.7 1000 658.7C1066.7 660.7 1133.3 663.3 1200 663.3C1266.7 663.3 1333.3 660.7 1400 667.7C1466.7 674.7 1533.3 691.3 1600 691.2C1666.7 691 1733.3 674 1800 660.2C1866.7 646.3 1933.3 635.7 1966.7 630.3L2000 625L2000 901L1966.7 901C1933.3 901 1866.7 901 1800 901C1733.3 901 1666.7 901 1600 901C1533.3 901 1466.7 901 1400 901C1333.3 901 1266.7 901 1200 901C1133.3 901 1066.7 901 1000 901C933.3 901 866.7 901 800 901C733.3 901 666.7 901 600 901C533.3 901 466.7 901 400 901C333.3 901 266.7 901 200 901C133.3 901 66.7 901 33.3 901L0 901Z" fill="#a9c3bc"></path><path d="M0 721L33.3 715.5C66.7 710 133.3 699 200 695.2C266.7 691.3 333.3 694.7 400 708.5C466.7 722.3 533.3 746.7 600 756C666.7 765.3 733.3 759.7 800 750.3C866.7 741 933.3 728 1000 721.8C1066.7 715.7 1133.3 716.3 1200 714.7C1266.7 713 1333.3 709 1400 708.3C1466.7 707.7 1533.3 710.3 1600 720.3C1666.7 730.3 1733.3 747.7 1800 757.2C1866.7 766.7 1933.3 768.3 1966.7 769.2L2000 770L2000 901L1966.7 901C1933.3 901 1866.7 901 1800 901C1733.3 901 1666.7 901 1600 901C1533.3 901 1466.7 901 1400 901C1333.3 901 1266.7 901 1200 901C1133.3 901 1066.7 901 1000 901C933.3 901 866.7 901 800 901C733.3 901 666.7 901 600 901C533.3 901 466.7 901 400 901C333.3 901 266.7 901 200 901C133.3 901 66.7 901 33.3 901L0 901Z" fill="#63939a"></path><path d="M0 817L33.3 811.3C66.7 805.7 133.3 794.3 200 784.5C266.7 774.7 333.3 766.3 400 772.5C466.7 778.7 533.3 799.3 600 799.2C666.7 799 733.3 778 800 766.8C866.7 755.7 933.3 754.3 1000 758.2C1066.7 762 1133.3 771 1200 776C1266.7 781 1333.3 782 1400 783.2C1466.7 784.3 1533.3 785.7 1600 779C1666.7 772.3 1733.3 757.7 1800 761.2C1866.7 764.7 1933.3 786.3 1966.7 797.2L2000 808L2000 901L1966.7 901C1933.3 901 1866.7 901 1800 901C1733.3 901 1666.7 901 1600 901C1533.3 901 1466.7 901 1400 901C1333.3 901 1266.7 901 1200 901C1133.3 901 1066.7 901 1000 901C933.3 901 866.7 901 800 901C733.3 901 666.7 901 600 901C533.3 901 466.7 901 400 901C333.3 901 266.7 901 200 901C133.3 901 66.7 901 33.3 901L0 901Z" fill="#29627e"></path><path d="M0 810L33.3 821.3C66.7 832.7 133.3 855.3 200 861.2C266.7 867 333.3 856 400 853.3C466.7 850.7 533.3 856.3 600 861C666.7 865.7 733.3 869.3 800 861.7C866.7 854 933.3 835 1000 824C1066.7 813 1133.3 810 1200 818.8C1266.7 827.7 1333.3 848.3 1400 857.5C1466.7 866.7 1533.3 864.3 1600 860.7C1666.7 857 1733.3 852 1800 845C1866.7 838 1933.3 829 1966.7 824.5L2000 820L2000 901L1966.7 901C1933.3 901 1866.7 901 1800 901C1733.3 901 1666.7 901 1600 901C1533.3 901 1466.7 901 1400 901C1333.3 901 1266.7 901 1200 901C1133.3 901 1066.7 901 1000 901C933.3 901 866.7 901 800 901C733.3 901 666.7 901 600 901C533.3 901 466.7 901 400 901C333.3 901 266.7 901 200 901C133.3 901 66.7 901 33.3 901L0 901Z" fill="#13315c"></path></svg>